<?xml version="1.0" encoding="UTF-8" standalone="no"?>
<svg
   width="184.51295mm"
   height="252.26538mm"
   viewBox="0 0 184.51295 252.26538"
   version="1.1"
   id="svg5"
   xml:space="preserve"
   inkscape:version="1.2 (dc2aeda, 2022-05-15)"
   sodipodi:docname="child.svg"
   xmlns:inkscape="http://www.inkscape.org/namespaces/inkscape"
   xmlns:sodipodi="http://sodipodi.sourceforge.net/DTD/sodipodi-0.dtd"
   xmlns="http://www.w3.org/2000/svg"
   xmlns:svg="http://www.w3.org/2000/svg"><sodipodi:namedview
   id="namedview7"
   pagecolor="#ffffff"
   bordercolor="#000000"
   borderopacity="0.25"
   inkscape:showpageshadow="2"
   inkscape:pageopacity="0.0"
   inkscape:pagecheckerboard="0"
   inkscape:deskcolor="#d1d1d1"
   inkscape:document-units="mm"
   showgrid="false"
   inkscape:zoom="0.33656405"
   inkscape:cx="-337.2315"
   inkscape:cy="626.92375"
   inkscape:window-width="1440"
   inkscape:window-height="872"
   inkscape:window-x="0"
   inkscape:window-y="0"
   inkscape:window-maximized="0"
   inkscape:current-layer="layer1" />
    <defs
   id="defs2" />
    <g
   inkscape:label="Layer 1"
   inkscape:groupmode="layer"
   id="layer1"
   transform="translate(-12.681998,-6.0129964)">
<!-- спереди -->

        <path
   style="fill:#d4d4d4;fill-opacity:1;stroke-width:0.260487"
   d="M 33.942215,20.591261 H 49.361138 V 6.0129964 c 0,0 -14.638219,0.186902 -15.418923,14.5782646 z"
   id="1f" />
        <path
   style="fill:#d4d4d4;fill-opacity:1;stroke-width:0.260487"
   d="M 65.343084,20.59143 H 49.924161 V 6.0131654 c 0,0 14.638219,0.186902 15.418923,14.5782646 z"
   id="2f" />
        <path
   style="fill:#d4d4d4;fill-opacity:1;stroke-width:0.248871"
   d="m 33.939706,21.064075 15.421631,0.0075 0.0026,14.988802 H 36.289172 c 0,0 -2.488596,-5.40129 -2.349466,-14.996365 z"
   id="3f"
   sodipodi:nodetypes="cccccc" />
        <path
   style="fill:#d4d4d4;fill-opacity:1;stroke-width:0.248871"
   d="m 65.348392,21.064226 -15.421631,0.0075 -0.0026,14.988802 h 13.074765 c 0,0 2.488596,-5.40129 2.349466,-14.996365 z"
   id="4f"
   sodipodi:nodetypes="cccccc" />
        <path
   style="fill:#d4d4d4;fill-opacity:1;stroke-width:0.299941"
   d="M 36.455186,36.504609 H 49.36093 v 9.67035 c 0,0 -10.302254,0.946055 -12.905744,-9.67035 z"
   id="5f"
   sodipodi:nodetypes="cccc" />
        <path
   style="fill:#d4d4d4;fill-opacity:1;stroke-width:0.299941"
   d="M 62.829905,36.504163 H 49.924161 v 9.67035 c 0,0 10.302254,0.946055 12.905744,-9.67035 z"
   id="6f"
   sodipodi:nodetypes="cccc" />
        <path
   style="fill:#d4d4d4;fill-opacity:1;stroke-width:0.266752"
   d="m 37.872481,55.249097 h 11.505564 v -8.617048 c 0,0 -3.435985,0.27968 -6.897234,-1.26103 -0.419046,7.045633 -0.740802,6.219825 -4.60833,9.878078 z"
   id="7f"
   sodipodi:nodetypes="ccccc" />
        <path
   style="fill:#d4d4d4;fill-opacity:1;stroke-width:0.266752"
   d="M 61.429725,55.249241 H 49.924161 v -8.617048 c 0,0 3.435985,0.27968 6.897234,-1.26103 0.419046,7.045633 0.740802,6.219825 4.60833,9.878078 z"
   id="8f"
   sodipodi:nodetypes="ccccc" />
        <path
   style="fill:#d4d4d4;fill-opacity:1;stroke-width:0.264583"
   d="M 37.477313,55.74437 H 49.376898 V 67.459133 H 32.305865 c 0,0 0.01925,-7.045559 0.01305,-9.896423 1.921481,-0.538861 2.591696,-0.877916 5.158398,-1.81834 z"
   id="9f"
   sodipodi:nodetypes="cccccc" />
        <path
   style="fill:#d4d4d4;fill-opacity:1;stroke-width:0.264583"
   d="M 61.823746,55.74437 H 49.924161 v 11.714763 h 17.071033 c 0,0 -0.01925,-7.045559 -0.01305,-9.896423 -1.921481,-0.538861 -2.591696,-0.877916 -5.158398,-1.81834 z"
   id="10f"
   sodipodi:nodetypes="cccccc" />
        <path
   style="display:inline;fill:#d4d4d4;fill-opacity:1;stroke-width:0.264583"
   d="m 15.889546,139.16749 h 7.196503 c 0,0 0.755934,3.44706 1.088547,4.38442 0.33261,0.93736 -0.574511,5.38226 -0.272137,7.10579 -0.937361,0.15119 -1.856691,-1.3357 -1.693296,-2.47947 0.362848,-2.53994 0.169446,-3.87032 -0.544273,-3.32611 -0.974685,2.2556 -0.93484,2.73589 -0.544273,5.01941 0.181423,1.4514 1.490987,2.17116 3.537776,2.69113 0.152066,0.66449 -0.937359,0.93737 -2.207333,1.14902 -2.328279,-0.51403 -5.019407,-1.02807 -7.347687,-3.44707 -0.514037,-2.11662 -1.300208,-3.90062 -1.149022,-6.10795 0.453562,-1.51187 1.300209,-3.35635 1.935195,-4.98917 z"
   id="11f"
   sodipodi:nodetypes="ccscsccccccc" />
        <path
   style="fill:#d4d4d4;fill-opacity:1;stroke-width:0.264583"
   d="m 16.844817,122.70629 9.517385,0.0309 c 0,0 -0.664068,3.96106 -2.748257,10.84685 -0.358396,1.46505 -0.595964,4.00532 -0.512204,5.11016 h -7.144038 c 0,0 0.865175,-2.61009 0.803007,-3.75796 -0.279588,-5.16226 0.08411,-12.22997 0.08411,-12.22997 z"
   id="12f"
   sodipodi:nodetypes="cccccsc" />
        <path
   style="fill:#d4d4d4;fill-opacity:1;stroke-width:0.264583"
   d="m 19.562971,102.31269 h 9.586645 c 0,0 -0.250979,9.61494 -0.508357,12.12302 -0.307756,1.7135 -1.412208,5.81156 -2.140884,7.7877 h -9.551942 c 0,0 0.140765,-6.90316 0.339577,-9.89084 0.202483,-3.04286 2.274961,-10.01988 2.274961,-10.01988 z"
   id="13f"
   sodipodi:nodetypes="cccccsc" />
        <path
   style="fill:#d4d4d4;fill-opacity:1;stroke-width:0.246455"
   d="m 20.02115,87.587172 h 8.550899 c 0,0 0.759054,7.176998 0.735647,10.252043 -0.01301,1.708638 -0.0153,1.728468 -0.128907,4.094915 l -9.492592,-0.0354 c 0,0 -7.12e-4,-0.40591 0.08685,-1.2015 -0.23204,-8.711802 0.248105,-13.110068 0.248105,-13.110068 z"
   id="14f"
   sodipodi:nodetypes="cccccccc" />
        <path
   style="fill:#d4d4d4;fill-opacity:1;stroke-width:0.264583"
   d="m 20.772908,67.947295 7.852338,-0.01414 v 19.22723 c 0,0 -3.612565,10e-4 -8.63142,0 -0.0479,-9.256139 0.41535,-14.738076 0.779082,-19.21309 z"
   id="15f"
   sodipodi:nodetypes="ccccc" />
        <path
   style="fill:#d4d4d4;fill-opacity:1;stroke-width:0.264979"
   d="m 31.680693,57.678757 -0.0088,9.766 H 20.783798 c 0,0 -0.471969,-8.064071 10.896895,-9.766 z"
   id="16f"
   sodipodi:nodetypes="cccc" />
        <path
   style="display:inline;fill:#d4d4d4;fill-opacity:1;stroke-width:0.264583"
   d="m 83.225369,139.16749 h -7.196503 c 0,0 -0.755934,3.44706 -1.088547,4.38442 -0.33261,0.93736 0.574511,5.38226 0.272137,7.10579 0.937361,0.15119 1.856691,-1.3357 1.693296,-2.47947 -0.362848,-2.53994 -0.169446,-3.87032 0.544273,-3.32611 0.974685,2.2556 0.93484,2.73589 0.544273,5.01941 -0.181423,1.4514 -1.490987,2.17116 -3.537776,2.69113 -0.152066,0.66449 0.937359,0.93737 2.207333,1.14902 2.328279,-0.51403 5.019407,-1.02807 7.347687,-3.44707 0.514037,-2.11662 1.300208,-3.90062 1.149022,-6.10795 -0.453562,-1.51187 -1.300209,-3.35635 -1.935195,-4.98917 z"
   id="17f"
   sodipodi:nodetypes="ccscsccccccc" />
        <path
   style="fill:#d4d4d4;fill-opacity:1;stroke-width:0.264583"
   d="m 82.270098,122.70629 -9.517385,0.0309 c 0,0 0.664068,3.96106 2.748257,10.84685 0.358396,1.46505 0.595964,4.00532 0.512204,5.11016 h 7.144038 c 0,0 -0.865175,-2.61009 -0.803007,-3.75796 0.279588,-5.16226 -0.08411,-12.22997 -0.08411,-12.22997 z"
   id="18f"
   sodipodi:nodetypes="cccccsc" />
        <path
   style="fill:#d4d4d4;fill-opacity:1;stroke-width:0.264583"
   d="m 79.551944,102.31269 h -9.586645 c 0,0 0.250979,9.61494 0.508357,12.12302 0.307756,1.7135 1.412208,5.81156 2.140884,7.7877 h 9.551942 c 0,0 -0.140765,-6.90316 -0.339577,-9.89084 -0.202483,-3.04286 -2.274961,-10.01988 -2.274961,-10.01988 z"
   id="19f"
   sodipodi:nodetypes="cccccsc" />
        <path
   style="fill:#d4d4d4;fill-opacity:1;stroke-width:0.246455"
   d="M 79.170849,87.587172 H 70.61995 c 0,0 -0.759054,7.177008 -0.735647,10.252053 0.01301,1.708638 0.0153,1.728468 0.128907,4.094915 l 9.492592,-0.0354 c 0,0 7.12e-4,-0.40591 -0.08685,-1.2015 0.23204,-8.711812 -0.248105,-13.110078 -0.248105,-13.110078 z"
   id="20f"
   sodipodi:nodetypes="cccccccc" />
        <path
   style="fill:#d4d4d4;fill-opacity:1;stroke-width:0.264583"
   d="m 78.465006,67.947295 -7.852338,-0.01414 v 19.22723 c 0,0 3.612565,10e-4 8.63142,0 0.0479,-9.256139 -0.41535,-14.738076 -0.779082,-19.21309 z"
   id="21f"
   sodipodi:nodetypes="ccccc" />
        <path
   style="fill:#d4d4d4;fill-opacity:1;stroke-width:0.264978"
   d="m 67.424181,57.697377 0.0088,9.765963 h 10.888095 c 0,0 0.471969,-8.06404 -10.896895,-9.765963 z"
   id="22f"
   sodipodi:nodetypes="cccc" />
        <path
   style="fill:#d4d4d4;fill-opacity:1;stroke-width:0.244279"
   d="M 29.032152,67.959194 H 40.712545 V 78.822673 H 29.136447 V 67.959194 Z"
   id="23f" />
        <path
   style="fill:#d4d4d4;fill-opacity:1;stroke-width:0.2913"
   d="M 41.202993,67.959194 H 57.812895 V 78.822673 H 41.351304 V 67.959194 Z"
   id="24f" />
        <path
   style="fill:#d4d4d4;fill-opacity:1;stroke-width:0.244274"
   d="m 70.142922,67.881407 h -11.68 V 78.744893 H 70.03863 V 67.881407 Z"
   id="25f" />
        <path
   style="fill:#d4d4d4;fill-opacity:1;stroke-width:0.264583"
   d="m 29.111959,87.523502 0.04174,-8.264342 h 11.56173 v 26.46256 H 29.883387 c 0,0 0.535487,-9.962623 -0.771428,-18.198218 z"
   id="26f"
   sodipodi:nodetypes="cccccc" />
        <path
   style="fill:#d4d4d4;fill-opacity:1;stroke-width:0.454649"
   d="m 41.202993,79.25916 h 16.609902 v 26.46297 H 41.351304 V 79.25916 Z"
   id="27f" />
        <path
   style="fill:#d4d4d4;fill-opacity:1;stroke-width:0.264583"
   d="m 70.000272,87.523502 -0.04174,-8.264342 h -11.56173 v 26.46256 h 10.832042 c 0,0 -0.535487,-9.962623 0.771428,-18.198218 z"
   id="28f"
   sodipodi:nodetypes="cccccc" />
        <path
   style="fill:#d4d4d4;fill-opacity:1;stroke-width:0.27049"
   d="m 29.909881,106.28125 h 10.819633 v 24.19391 H 28.126808 c 0,0 0.788598,-5.47703 1.825024,-12.71758 0.05568,-6.0947 -0.04195,-11.47633 -0.04195,-11.47633 z"
   id="29f"
   sodipodi:nodetypes="cccccc" />
        <path
   style="fill:#d4d4d4;fill-opacity:1;stroke-width:0.43472"
   d="m 41.202993,106.24671 h 16.609902 v 24.194 H 41.215676 Z"
   id="30f"
   sodipodi:nodetypes="ccccc" />
        <path
   style="fill:#d4d4d4;fill-opacity:1;stroke-width:0.27049"
   d="M 69.205034,106.28125 H 58.385401 v 24.19391 h 12.602706 c 0,0 -0.788598,-5.47703 -1.825024,-12.71758 -0.05568,-6.0947 0.04195,-11.47633 0.04195,-11.47633 z"
   id="31f"
   sodipodi:nodetypes="cccccc" />
        <path
   style="fill:#d4d4d4;fill-opacity:1;stroke-width:0.266179"
   d="m 28.07119,131.08 h 12.663164 v 15.41396 H 27.418451 c 0,0 -0.130548,-7.0298 0.652739,-15.41396 z"
   id="32f" />
        <path
   style="fill:#d4d4d4;fill-opacity:1;stroke-width:0.379422"
   d="m 57.812895,149.51042 h -7.072179 c 0,0 0.197139,-1.8252 -1.131074,-1.78862 -1.245537,-0.0366 -1.117479,1.78862 -1.117479,1.78862 h -7.276487 m 0,0 -0.01268,-18.43029 h 16.609902 v 18.43029"
   id="33f"
   sodipodi:nodetypes="ccccccccc" />
        <path
   style="fill:#d4d4d4;fill-opacity:1;stroke-width:0.266179"
   d="M 71.048325,131.08 H 58.385161 v 15.41396 h 13.315903 c 0,0 0.130548,-7.0298 -0.652739,-15.41396 z"
   id="34f" />
        <path
   style="fill:#d4d4d4;fill-opacity:1;stroke-width:0.264583"
   d="m 32.977441,231.53738 8.974745,0.066 c 0,0 -0.689583,2.49818 0.205517,6.20303 0.71015,2.93934 2.628762,3.29126 2.146527,7.23066 -5.015246,1.76131 -12.981315,3.27289 -17.071128,-1.44383 2.175793,-5.53019 4.781013,-4.52081 5.475666,-7.94468 0.628632,-1.57529 0.268673,-4.1112 0.268673,-4.1112 z"
   id="35f"
   sodipodi:nodetypes="ccccccc" />
        <path
   style="fill:#d4d4d4;fill-opacity:1;stroke-width:0.247831"
   d="M 30.024022,211.46148 H 44.03115 c 0,0 -1.172456,6.27096 -2.001017,19.43755 -3.019769,0 -5.939716,0 -9.07605,0 -1.885754,-16.2838 -2.930061,-19.43755 -2.930061,-19.43755 z"
   id="36f"
   sodipodi:nodetypes="ccccc" />
        <path
   style="fill:#d4d4d4;fill-opacity:1;stroke-width:0.26362"
   d="m 29.715943,192.28516 h 11.092989 v 18.57458 H 29.910558 c 0,0 -2.043445,-8.87071 -0.194615,-18.57458 z"
   id="37f"
   sodipodi:nodetypes="ccccc" />
        <path
   style="fill:#d4d4d4;fill-opacity:1;stroke-width:0.262516"
   d="M 44.914529,192.28513 H 41.28783 v 18.575 h 2.940566 c 0,0 1.568302,-8.87739 0.686133,-18.575 z"
   id="38f" />
        <path
   style="fill:#d4d4d4;fill-opacity:1;stroke-width:0.253121"
   d="m 31.105732,178.6396 h 9.700965 v 13.1075 H 29.766726 c 0,0 0.295317,-1.95195 1.424201,-7.22555 0.242022,-3.58797 -0.0852,-5.88195 -0.0852,-5.88195 z"
   id="39f"
   sodipodi:nodetypes="ccccccc" />
        <path
   style="fill:#d4d4d4;fill-opacity:1;stroke-width:0.276249"
   d="m 45.886096,178.63525 h -4.588991 v 13.14211 h 3.533118 c 0,0 -0.206673,-2.20471 -0.287892,-4.33175 0.609157,-3.34251 1.343765,-8.81036 1.343765,-8.81036 z"
   id="40f"
   sodipodi:nodetypes="cccccc" />
        <path
   style="fill:#d4d4d4;fill-opacity:1;stroke-width:0.23734"
   d="m 29.499025,164.1373 h 11.3128 v 13.96984 h -9.807469 c -0.002,0.0651 -0.88793,-4.96584 -1.505331,-13.96984 z"
   id="41f"
   sodipodi:nodetypes="ccccc" />
        <path
   style="fill:#d4d4d4;fill-opacity:1;stroke-width:0.276236"
   d="m 47.650779,164.17283 h -6.394682 v 13.97 h 4.684815 c 0,0 1.177502,-6.701 1.709867,-13.97 z"
   id="42f"
   sodipodi:nodetypes="ccccc" />
        <path
   style="fill:#d4d4d4;fill-opacity:1;stroke-width:0.266587"
   d="m 27.379869,147.07365 h 13.365284 v 16.51679 H 29.365389 c 0,0 -1.45694,-6.72465 -1.98552,-16.51679 z"
   id="43f"
   sodipodi:nodetypes="ccccc" />
        <path
   style="fill:#d4d4d4;fill-opacity:1;stroke-width:0.298094"
   d="m 48.560774,150.00553 h -7.249927 v 13.56229 h 6.398847 c 0,0 0.864645,-7.84795 0.85108,-13.56229 z"
   id="44f"
   sodipodi:nodetypes="ccccc" />
        <path
   style="fill:#d4d4d4;fill-opacity:1;stroke-width:0.264583"
   d="m 66.284673,231.53738 -8.974745,0.066 c 0,0 0.689583,2.49818 -0.205517,6.20303 -0.71015,2.93934 -2.628762,3.29126 -2.146527,7.23066 5.015246,1.76131 12.981315,3.27289 17.071128,-1.44383 -2.175793,-5.53019 -4.781013,-4.52081 -5.475666,-7.94468 -0.628632,-1.57529 -0.268673,-4.1112 -0.268673,-4.1112 z"
   id="45f"
   sodipodi:nodetypes="ccccccc" />
        <path
   style="fill:#d4d4d4;fill-opacity:1;stroke-width:0.247831"
   d="M 69.238092,211.46148 H 55.230964 c 0,0 1.172456,6.27096 2.001017,19.43755 3.019769,0 5.939716,0 9.07605,0 1.885754,-16.2838 2.930061,-19.43755 2.930061,-19.43755 z"
   id="46f"
   sodipodi:nodetypes="ccccc" />
        <path
   style="fill:#d4d4d4;fill-opacity:1;stroke-width:0.26362"
   d="M 69.546171,192.28516 H 58.453182 v 18.57458 h 10.898374 c 0,0 2.043445,-8.87071 0.194615,-18.57458 z"
   id="47f"
   sodipodi:nodetypes="ccccc" />
        <path
   style="fill:#d4d4d4;fill-opacity:1;stroke-width:0.262516"
   d="m 54.347585,192.28513 h 3.626699 v 18.575 h -2.940566 c 0,0 -1.568302,-8.87739 -0.686133,-18.575 z"
   id="48f" />
        <path
   style="fill:#d4d4d4;fill-opacity:1;stroke-width:0.253121"
   d="m 68.156382,178.6396 h -9.700965 v 13.1075 h 11.039971 c 0,0 -0.295317,-1.95195 -1.424201,-7.22555 -0.242022,-3.58797 0.0852,-5.88195 0.0852,-5.88195 z"
   id="49f"
   sodipodi:nodetypes="ccccccc" />
        <path
   style="fill:#d4d4d4;fill-opacity:1;stroke-width:0.276249"
   d="m 53.376018,178.63525 h 4.588991 v 13.14211 h -3.533118 c 0,0 0.206673,-2.20471 0.287892,-4.33175 -0.609157,-3.34251 -1.343765,-8.81036 -1.343765,-8.81036 z"
   id="50f"
   sodipodi:nodetypes="cccccc" />
        <path
   style="fill:#d4d4d4;fill-opacity:1;stroke-width:0.23734"
   d="m 69.763089,164.1373 h -11.3128 v 13.96984 h 9.807469 c 0.002,0.0651 0.88793,-4.96584 1.505331,-13.96984 z"
   id="51f"
   sodipodi:nodetypes="ccccc" />
        <path
   style="fill:#d4d4d4;fill-opacity:1;stroke-width:0.276236"
   d="m 51.611335,164.17283 h 6.394682 v 13.97 h -4.684815 c 0,0 -1.177502,-6.701 -1.709867,-13.97 z"
   id="52f"
   sodipodi:nodetypes="ccccc" />
        <path
   style="fill:#d4d4d4;fill-opacity:1;stroke-width:0.266587"
   d="M 71.882245,147.07365 H 58.516961 v 16.51679 h 11.379764 c 0,0 1.45694,-6.72465 1.98552,-16.51679 z"
   id="53f"
   sodipodi:nodetypes="ccccc" />
        <path
   style="fill:#d4d4d4;fill-opacity:1;stroke-width:0.298094"
   d="m 50.740468,150.00553 h 7.249927 v 13.56229 h -6.398847 c 0,0 -0.864645,-7.84795 -0.85108,-13.56229 z"
   id="54f"
   sodipodi:nodetypes="ccccc" />

        <!-- сзади -->
        <path
   style="fill:#d4d4d4;fill-opacity:1;stroke-width:0.260487"
   d="m 144.53837,20.591261 h 15.41901 V 6.0129964 c 0,0 -14.6383,0.186902 -15.41901,14.5782646 z"
   id="1b" />
        <path
   style="fill:#d4d4d4;fill-opacity:1;stroke-width:0.260487"
   d="M 175.93942,20.59143 H 160.52041 V 6.0131654 c 0,0 14.6383,0.186902 15.41901,14.5782646 z"
   id="2b" />
        <path
   style="fill:#d4d4d4;fill-opacity:1;stroke-width:0.248871"
   d="m 144.53586,21.064075 15.42172,0.0075 0.003,14.988802 h -13.07524 c 0,0 -2.48861,-5.40129 -2.34948,-14.996365 z"
   id="3b"
   sodipodi:nodetypes="cccccc" />
        <path
   style="fill:#d4d4d4;fill-opacity:1;stroke-width:0.248871"
   d="m 175.94472,21.064226 -15.42171,0.0075 -0.003,14.988802 h 13.07484 c 0,0 2.4886,-5.40129 2.34947,-14.996365 z"
   id="4b"
   sodipodi:nodetypes="cccccc" />
        <path
   style="fill:#d4d4d4;fill-opacity:1;stroke-width:0.266752"
   d="m 148.46866,55.249097 h 11.50563 V 36.604806 c 0,0 -9.93985,-0.04665 -12.88695,-0.04665 -0.94111,-0.191264 2.36965,5.448858 5.93422,7.759371 -0.41905,7.045633 -0.68535,7.273313 -4.5529,10.931566 z"
   id="5b"
   sodipodi:nodetypes="ccccccc" />
        <path
   style="fill:#d4d4d4;fill-opacity:1;stroke-width:0.266752"
   d="M 172.01046,55.249097 H 160.50483 V 36.604806 c 0,0 9.93985,-0.04665 12.88695,-0.04665 0.94111,-0.191264 -2.36965,5.448858 -5.93422,7.759371 0.41905,7.045633 0.68535,7.273313 4.5529,10.931566 z"
   id="6b"
   sodipodi:nodetypes="ccccccc" />
        <path
   style="fill:#d4d4d4;fill-opacity:1;stroke-width:0.264583"
   d="m 148.07349,55.74437 h 11.89965 v 11.714763 h -17.07113 c 0,0 0.0192,-7.045559 0.013,-9.896423 1.92149,-0.538861 2.59171,-0.877916 5.15843,-1.81834 z"
   id="7b"
   sodipodi:nodetypes="cccccc" />
        <path
   style="fill:#d4d4d4;fill-opacity:1;stroke-width:0.264583"
   d="m 172.42006,55.74437 h -11.89965 v 11.714763 h 17.07112 c 0,0 -0.0192,-7.045559 -0.0131,-9.896423 -1.92149,-0.538861 -2.59171,-0.877916 -5.15842,-1.81834 z"
   id="8b"
   sodipodi:nodetypes="cccccc" />
        <path
   style="display:inline;fill:#d4d4d4;fill-opacity:1;stroke-width:0.264583"
   d="m 126.4856,139.16749 h 7.19654 c 0,0 0.75594,3.44706 1.08855,4.38442 0.33262,0.93736 -0.57451,5.38226 -0.27213,7.10579 -0.93737,0.15119 -1.85671,-1.3357 -1.69331,-2.47947 0.36285,-2.53994 0.16945,-3.87032 -0.54428,-3.32611 -0.97469,2.2556 -0.93484,2.73589 -0.54427,5.01941 0.18142,1.4514 1.49099,2.17116 3.53779,2.69113 0.15207,0.66449 -0.93736,0.93737 -2.20734,1.14902 -2.32829,-0.51403 -5.01944,-1.02807 -7.34773,-3.44707 -0.51404,-2.11662 -1.30021,-3.90062 -1.14903,-6.10795 0.45357,-1.51187 1.30022,-3.35635 1.93521,-4.98917 z"
   id="9b"
   sodipodi:nodetypes="ccscsccccccc" />
        <path
   style="fill:#d4d4d4;fill-opacity:1;stroke-width:0.264583"
   d="m 127.44087,122.70629 9.51744,0.0309 c 0,0 -0.66407,3.96106 -2.74827,10.84685 -0.3584,1.46505 -0.59597,4.00532 -0.51221,5.11016 h -7.14407 c 0,0 0.86517,-2.61009 0.80301,-3.75796 -0.27959,-5.16226 0.0841,-12.22997 0.0841,-12.22997 z"
   id="10b"
   sodipodi:nodetypes="cccccsc" />
        <path
   style="fill:#d4d4d4;fill-opacity:1;stroke-width:0.264583"
   d="m 130.15904,102.31269 h 9.5867 c 0,0 -0.25098,9.61494 -0.50836,12.12302 -0.30776,1.7135 -1.41221,5.81156 -2.14089,7.7877 h -9.552 c 0,0 0.14077,-6.90316 0.33958,-9.89084 0.20248,-3.04286 2.27497,-10.01988 2.27497,-10.01988 z"
   id="11b"
   sodipodi:nodetypes="cccccsc" />
        <path
   style="fill:#d4d4d4;fill-opacity:1;stroke-width:0.246455"
   d="m 130.61722,87.587172 h 8.55095 c 0,0 0.75906,7.176998 0.73565,10.252043 -0.013,1.708638 -0.0153,1.728468 -0.1289,4.094915 l -9.49265,-0.0354 c 0,0 -7.1e-4,-0.40591 0.0868,-1.2015 -0.23204,-8.711802 0.24811,-13.110068 0.24811,-13.110068 z"
   id="12b"
   sodipodi:nodetypes="cccccccc" />
        <path
   style="fill:#d4d4d4;fill-opacity:1;stroke-width:0.264583"
   d="m 131.36899,67.947295 7.85238,-0.01414 v 19.22723 c 0,0 -3.61259,10e-4 -8.63147,0 -0.0479,-9.256139 0.41535,-14.738076 0.77909,-19.21309 z"
   id="13b"
   sodipodi:nodetypes="ccccc" />
        <path
   style="fill:#d4d4d4;fill-opacity:1;stroke-width:0.264979"
   d="m 142.27683,57.678757 -0.009,9.766 h -10.88795 c 0,0 -0.47197,-8.064071 10.89695,-9.766 z"
   id="14b"
   sodipodi:nodetypes="cccc" />
        <path
   style="display:inline;fill:#d4d4d4;fill-opacity:1;stroke-width:0.264583"
   d="m 193.8218,139.16749 h -7.19654 c 0,0 -0.75594,3.44706 -1.08856,4.38442 -0.33261,0.93736 0.57452,5.38226 0.27214,7.10579 0.93737,0.15119 1.8567,-1.3357 1.69331,-2.47947 -0.36285,-2.53994 -0.16945,-3.87032 0.54428,-3.32611 0.97469,2.2556 0.93484,2.73589 0.54427,5.01941 -0.18142,1.4514 -1.49099,2.17116 -3.5378,2.69113 -0.15206,0.66449 0.93737,0.93737 2.20735,1.14902 2.32829,-0.51403 5.01944,-1.02807 7.34773,-3.44707 0.51404,-2.11662 1.30022,-3.90062 1.14903,-6.10795 -0.45357,-1.51187 -1.30022,-3.35635 -1.93521,-4.98917 z"
   id="15b"
   sodipodi:nodetypes="ccscsccccccc" />
        <path
   style="fill:#d4d4d4;fill-opacity:1;stroke-width:0.264583"
   d="m 192.86653,122.70629 -9.51744,0.0309 c 0,0 0.66407,3.96106 2.74827,10.84685 0.3584,1.46505 0.59597,4.00532 0.51221,5.11016 h 7.14408 c 0,0 -0.86519,-2.61009 -0.80302,-3.75796 0.27959,-5.16226 -0.0841,-12.22997 -0.0841,-12.22997 z"
   id="16b"
   sodipodi:nodetypes="cccccsc" />
        <path
   style="fill:#d4d4d4;fill-opacity:1;stroke-width:0.264583"
   d="m 190.14836,102.31269 h -9.5867 c 0,0 0.25098,9.61494 0.50836,12.12302 0.30775,1.7135 1.41221,5.81156 2.14089,7.7877 h 9.552 c 0,0 -0.14077,-6.90316 -0.33958,-9.89084 -0.20248,-3.04286 -2.27497,-10.01988 -2.27497,-10.01988 z"
   id="17b"
   sodipodi:nodetypes="cccccsc" />
        <path
   style="fill:#d4d4d4;fill-opacity:1;stroke-width:0.246455"
   d="m 189.76726,87.587172 h -8.55095 c 0,0 -0.75906,7.177008 -0.73565,10.252053 0.013,1.708638 0.0153,1.728468 0.12891,4.094915 l 9.49264,-0.0354 c 0,0 7.2e-4,-0.40591 -0.0868,-1.2015 0.23204,-8.711812 -0.2481,-13.110078 -0.2481,-13.110078 z"
   id="18b"
   sodipodi:nodetypes="cccccccc" />
        <path
   style="fill:#d4d4d4;fill-opacity:1;stroke-width:0.264583"
   d="m 189.06141,67.947295 -7.85238,-0.01414 v 19.22723 c 0,0 3.61259,10e-4 8.63147,0 0.0479,-9.256139 -0.41536,-14.738076 -0.77909,-19.21309 z"
   id="19b"
   sodipodi:nodetypes="ccccc" />
        <path
   style="fill:#d4d4d4;fill-opacity:1;stroke-width:0.264978"
   d="m 178.02052,57.697377 0.009,9.765963 h 10.88816 c 0,0 0.47197,-8.06404 -10.89696,-9.765963 z"
   id="20b"
   sodipodi:nodetypes="cccc" />
        <path
   style="fill:#d4d4d4;fill-opacity:1;stroke-width:0.244279"
   d="m 139.62828,67.959194 h 11.68046 V 78.822673 H 139.73257 V 67.959194 Z"
   id="21b" />
        <path
   style="fill:#d4d4d4;fill-opacity:1;stroke-width:0.2913"
   d="m 151.79919,67.959194 h 16.60999 V 78.822673 H 151.9475 V 67.959194 Z"
   id="22b" />
        <path
   style="fill:#d4d4d4;fill-opacity:1;stroke-width:0.244274"
   d="m 180.73928,67.881407 h -11.68007 v 10.863486 h 11.57578 V 67.881407 Z"
   id="23b" />
        <path
   style="fill:#d4d4d4;fill-opacity:1;stroke-width:0.264583"
   d="m 139.70809,87.523502 0.0417,-8.264342 h 11.56179 v 26.46256 h -10.8321 c 0,0 0.53549,-9.962623 -0.77143,-18.198218 z"
   id="24b"
   sodipodi:nodetypes="cccccc" />
        <path
   style="fill:#d4d4d4;fill-opacity:1;stroke-width:0.454649"
   d="m 151.79919,79.25916 h 16.60999 v 26.46297 H 151.9475 V 79.25916 Z"
   id="25b" />
        <path
   style="fill:#d4d4d4;fill-opacity:1;stroke-width:0.264583"
   d="m 180.59663,87.523502 -0.0417,-8.264342 h -11.56184 v 26.46256 h 10.83211 c 0,0 -0.53549,-9.962623 0.77143,-18.198218 z"
   id="26b"
   sodipodi:nodetypes="cccccc" />
        <path
   style="fill:#d4d4d4;fill-opacity:1;stroke-width:0.27049"
   d="m 140.50601,106.28125 h 10.81969 v 24.19391 h -12.60277 c 0,0 0.7886,-5.47703 1.82503,-12.71758 0.0557,-6.0947 -0.0419,-11.47633 -0.0419,-11.47633 z"
   id="27b"
   sodipodi:nodetypes="cccccc" />
        <path
   style="fill:#d4d4d4;fill-opacity:1;stroke-width:0.43472"
   d="m 151.79919,106.24671 h 16.60999 v 24.194 h -16.59731 z"
   id="28b"
   sodipodi:nodetypes="ccccc" />
        <path
   style="fill:#d4d4d4;fill-opacity:1;stroke-width:0.27049"
   d="m 179.80139,106.28125 h -10.8197 v 24.19391 h 12.60278 c 0,0 -0.7886,-5.47703 -1.82503,-12.71758 -0.0557,-6.0947 0.0419,-11.47633 0.0419,-11.47633 z"
   id="29b"
   sodipodi:nodetypes="cccccc" />
        <path
   style="fill:#d4d4d4;fill-opacity:1;stroke-width:0.266179"
   d="m 138.66731,131.08 h 12.66324 v 15.41396 h -13.31598 c 0,0 -0.13055,-7.0298 0.65274,-15.41396 z"
   id="30b" />
        <path
   style="fill:#d4d4d4;fill-opacity:1;stroke-width:0.379422"
   d="m 168.40918,149.51042 h -7.07222 c 0,0 0.19715,-1.8252 -1.13108,-1.78862 -1.24554,-0.0366 -1.11748,1.78862 -1.11748,1.78862 h -7.27653 m 0,0 -0.0127,-18.43029 h 16.61 v 18.43029"
   id="31b"
   sodipodi:nodetypes="ccccccccc" />
        <path
   style="fill:#d4d4d4;fill-opacity:1;stroke-width:0.266179"
   d="m 181.64469,131.08 h -12.66324 v 15.41396 h 13.31598 c 0,0 0.13055,-7.0298 -0.65274,-15.41396 z"
   id="32b" />
        <path
   style="fill:#d4d4d4;fill-opacity:1;stroke-width:0.264583"
   d="m 143.57359,231.53738 9.45584,0.066 c 0,0 -0.27727,0.71147 0.61783,4.41632 0.71016,2.93934 1.1213,4.05588 0.63906,6.3757 -0.95229,1.23817 -2.52901,2.61451 -4.44415,2.66239 -3.10419,-0.076 -4.5416,-1.47355 -5.86892,-2.07658 -3.51916,-2.35913 -5.05251,-0.81976 -6.88281,-5.12632 0.94291,-2.48038 3.52654,-3.66216 5.12086,-3.82531 1.99228,0.428 0.92446,0.49445 1.40165,0.3161 0.21367,-1.46315 -0.0394,-2.80832 -0.0394,-2.80832 z"
   id="33b"
   sodipodi:nodetypes="ccccccccccc" />
        <path
   style="fill:#d4d4d4;fill-opacity:1;stroke-width:0.247831"
   d="m 140.62015,211.46148 h 14.00721 c 0,0 -1.24118,6.27096 -1.58871,19.43755 h -9.48842 c -1.88576,-16.2838 -2.93008,-19.43755 -2.93008,-19.43755 z"
   id="34b"
   sodipodi:nodetypes="ccccc" />
        <path
   style="fill:#d4d4d4;fill-opacity:1;stroke-width:0.26362"
   d="m 140.31207,192.28516 h 11.09306 v 18.57458 h -10.89844 c 0,0 -2.04346,-8.87071 -0.19462,-18.57458 z"
   id="35b"
   sodipodi:nodetypes="ccccc" />
        <path
   style="fill:#d4d4d4;fill-opacity:1;stroke-width:0.262516"
   d="m 155.51074,192.28513 h -3.62671 v 18.575 h 2.94058 c 0,0 1.56831,-8.87739 0.68613,-18.575 z"
   id="36b" />
        <path
   style="fill:#d4d4d4;fill-opacity:1;stroke-width:0.253121"
   d="m 141.70187,178.6396 h 9.70102 v 13.1075 h -11.04003 c 0,0 0.29531,-1.95195 1.4242,-7.22555 0.24203,-3.58797 -0.0852,-5.88195 -0.0852,-5.88195 z"
   id="37b"
   sodipodi:nodetypes="ccccccc" />
        <path
   style="fill:#d4d4d4;fill-opacity:1;stroke-width:0.276249"
   d="m 156.48232,178.63525 h -4.58902 v 13.14211 h 3.53314 c 0,0 -0.20668,-2.20471 -0.28789,-4.33175 0.60916,-3.34251 1.34377,-8.81036 1.34377,-8.81036 z"
   id="38b"
   sodipodi:nodetypes="cccccc" />
        <path
   style="fill:#d4d4d4;fill-opacity:1;stroke-width:0.23734"
   d="m 140.09515,164.1373 h 11.31287 v 13.96984 h -9.80753 c -0.002,0.0651 -0.88793,-4.96584 -1.50534,-13.96984 z"
   id="39b"
   sodipodi:nodetypes="ccccc" />
        <path
   style="fill:#d4d4d4;fill-opacity:1;stroke-width:0.276236"
   d="m 158.24701,164.17283 h -6.39472 v 13.97 h 4.68484 c 0,0 1.17751,-6.701 1.70988,-13.97 z"
   id="40b"
   sodipodi:nodetypes="ccccc" />
        <path
   style="fill:#d4d4d4;fill-opacity:1;stroke-width:0.266587"
   d="m 137.97598,147.07365 h 13.36537 v 16.51679 h -11.37983 c 0,0 -1.45695,-6.72465 -1.98554,-16.51679 z"
   id="41b"
   sodipodi:nodetypes="ccccc" />
        <path
   style="fill:#d4d4d4;fill-opacity:1;stroke-width:0.298094"
   d="m 159.15701,150.00553 h -7.24997 v 13.56229 h 6.39889 c 0,0 0.86464,-7.84795 0.85108,-13.56229 z"
   id="42b"
   sodipodi:nodetypes="ccccc" />
        <path
   style="fill:#d4d4d4;fill-opacity:1;stroke-width:0.264583"
   d="m 177.11637,231.53738 -9.45584,0.066 c 0,0 0.27727,0.71147 -0.61783,4.41632 -0.71016,2.93934 -1.1213,4.05588 -0.63906,6.3757 0.95229,1.23817 2.52901,2.61451 4.44415,2.66239 3.10419,-0.076 4.5416,-1.47355 5.86892,-2.07658 3.51916,-2.35913 5.05251,-0.81976 6.88281,-5.12632 -0.94291,-2.48038 -3.52654,-3.66216 -5.12086,-3.82531 -1.99228,0.428 -0.92446,0.49445 -1.40165,0.3161 -0.21367,-1.46315 0.0394,-2.80832 0.0394,-2.80832 z"
   id="43b"
   sodipodi:nodetypes="ccccccccccc" />
        <path
   style="display:inline;fill:#d4d4d4;fill-opacity:1;stroke-width:0.247831"
   d="m 179.83444,211.46148 h -14.0072 c 0,0 1.17246,6.27096 2.00103,19.43755 3.01978,0 5.93975,0 9.0761,0 1.88576,-16.2838 2.93007,-19.43755 2.93007,-19.43755 z"
   id="44b"
   sodipodi:nodetypes="ccccc"
   inkscape:label="44b" />
        <path
   style="fill:#d4d4d4;fill-opacity:1;stroke-width:0.26362"
   d="m 180.14253,192.28516 h -11.09306 v 18.57458 h 10.89844 c 0,0 2.04346,-8.87071 0.19462,-18.57458 z"
   id="45b"
   sodipodi:nodetypes="ccccc" />
        <path
   style="fill:#d4d4d4;fill-opacity:1;stroke-width:0.262516"
   d="m 164.94385,192.28513 h 3.62672 v 18.575 h -2.94058 c 0,0 -1.56831,-8.87739 -0.68614,-18.575 z"
   id="46b" />
        <path
   style="fill:#d4d4d4;fill-opacity:1;stroke-width:0.253121"
   d="m 178.75273,178.6396 h -9.70102 v 13.1075 h 11.04003 c 0,0 -0.29532,-1.95195 -1.42421,-7.22555 -0.24202,-3.58797 0.0852,-5.88195 0.0852,-5.88195 z"
   id="47b"
   sodipodi:nodetypes="ccccccc" />
        <path
   style="fill:#d4d4d4;fill-opacity:1;stroke-width:0.276249"
   d="m 163.97228,178.63525 h 4.58902 v 13.14211 h -3.53314 c 0,0 0.20668,-2.20471 0.28789,-4.33175 -0.60916,-3.34251 -1.34377,-8.81036 -1.34377,-8.81036 z"
   id="48b"
   sodipodi:nodetypes="cccccc" />
        <path
   style="fill:#d4d4d4;fill-opacity:1;stroke-width:0.23734"
   d="m 180.35944,164.1373 h -11.31286 v 13.96984 h 9.80753 c 0.002,0.0651 0.88793,-4.96584 1.50533,-13.96984 z"
   id="49b"
   sodipodi:nodetypes="ccccc" />
        <path
   style="fill:#d4d4d4;fill-opacity:1;stroke-width:0.276236"
   d="m 162.20759,164.17283 h 6.39472 v 13.97 h -4.68485 c 0,0 -1.1775,-6.701 -1.70987,-13.97 z"
   id="50b"
   sodipodi:nodetypes="ccccc" />
        <path
   style="fill:#d4d4d4;fill-opacity:1;stroke-width:0.266587"
   d="m 182.47861,147.07365 h -13.36536 v 16.51679 h 11.37983 c 0,0 1.45695,-6.72465 1.98553,-16.51679 z"
   id="51b"
   sodipodi:nodetypes="ccccc" />
        <path
   style="fill:#d4d4d4;fill-opacity:1;stroke-width:0.298094"
   d="m 161.33672,150.00553 h 7.24996 v 13.56229 h -6.39888 c 0,0 -0.86465,-7.84795 -0.85108,-13.56229 z"
   id="52b"
   sodipodi:nodetypes="ccccc" />

        
        
        
        
        
        <text
   xml:space="preserve"
   style="font-size:3.88056px;text-align:center;text-anchor:middle;fill:#f2b4b4;stroke-width:0.265;stroke-dasharray:none"
   x="23.836432"
   y="13.83436"
   id="text1026"><tspan
     sodipodi:role="line"
     id="tspan1024"
     style="font-size:3.88056px;fill:#000000;fill-opacity:1;stroke-width:0.265;stroke-dasharray:none"
     x="23.836432"
     y="13.83436">Правая </tspan><tspan
     sodipodi:role="line"
     style="font-size:3.88056px;fill:#000000;fill-opacity:1;stroke-width:0.265;stroke-dasharray:none"
     x="23.836432"
     y="18.685061"
     id="tspan1078">сторона</tspan></text><text
   xml:space="preserve"
   style="font-size:3.88056px;text-align:center;text-anchor:middle;fill:#f2b4b4;stroke-width:0.265;stroke-dasharray:none"
   x="185.62663"
   y="13.83436"
   id="text1742"><tspan
     sodipodi:role="line"
     id="tspan1738"
     style="font-size:3.88056px;fill:#000000;fill-opacity:1;stroke-width:0.265;stroke-dasharray:none"
     x="185.62663"
     y="13.83436">Правая </tspan><tspan
     sodipodi:role="line"
     style="font-size:3.88056px;fill:#000000;fill-opacity:1;stroke-width:0.265;stroke-dasharray:none"
     x="185.62663"
     y="18.685061"
     id="tspan1740">сторона</tspan></text><text
   xml:space="preserve"
   style="font-size:3.88056px;text-align:center;text-anchor:middle;fill:#f2b4b4;stroke-width:0.265;stroke-dasharray:none"
   x="134.46428"
   y="13.83436"
   id="text1748"><tspan
     sodipodi:role="line"
     id="tspan1744"
     style="font-size:3.88056px;fill:#000000;fill-opacity:1;stroke-width:0.265;stroke-dasharray:none"
     x="134.46428"
     y="13.83436">Левая </tspan><tspan
     sodipodi:role="line"
     style="font-size:3.88056px;fill:#000000;fill-opacity:1;stroke-width:0.265;stroke-dasharray:none"
     x="134.46428"
     y="18.685061"
     id="tspan1746">сторона</tspan></text><text
   xml:space="preserve"
   style="font-size:3.88056px;text-align:center;text-anchor:middle;fill:#f2b4b4;stroke-width:0.265;stroke-dasharray:none"
   x="75.15844"
   y="13.83436"
   id="text1754"><tspan
     sodipodi:role="line"
     id="tspan1750"
     style="font-size:3.88056px;fill:#000000;fill-opacity:1;stroke-width:0.265;stroke-dasharray:none"
     x="75.15844"
     y="13.83436">Левая </tspan><tspan
     sodipodi:role="line"
     style="font-size:3.88056px;fill:#000000;fill-opacity:1;stroke-width:0.265;stroke-dasharray:none"
     x="75.15844"
     y="18.685061"
     id="tspan1752">сторона</tspan></text><text
   xml:space="preserve"
   style="font-size:3.88056px;text-align:center;text-anchor:middle;fill:#f2b4b4;stroke-width:0.265;stroke-dasharray:none"
   x="48.606106"
   y="253.88553"
   id="text1760"><tspan
     sodipodi:role="line"
     style="font-size:3.88056px;fill:#000000;fill-opacity:1;stroke-width:0.265;stroke-dasharray:none"
     x="48.606106"
     y="253.88553"
     id="tspan1758">Спереди</tspan></text><text
   xml:space="preserve"
   style="font-size:3.88056px;text-align:center;text-anchor:middle;fill:#f2b4b4;stroke-width:0.265;stroke-dasharray:none"
   x="160.40851"
   y="253.88551"
   id="text1766"><tspan
     sodipodi:role="line"
     style="font-size:3.88056px;fill:#000000;fill-opacity:1;stroke-width:0.265;stroke-dasharray:none"
     x="160.40851"
     y="253.88551"
     id="tspan1764">Сзади</tspan></text></g></svg>
